PathFileType	4	(X/Y/Z)	 Static_Ext01.trc
DataRate	CameraRate	NumFrames	NumMarkers	Units	OrigDataRate	OrigDataStartFrame	OrigNumFrames
250	250	4	38	m	250	1	423
Frame#	Time	RASI			LASI			RPSI			LPSI			RAIC			LAIC			RLFC			RMFC			RTH1			RTH2			RTH3			RLMAL			RMMAL			RTB1			RTB2			RTB3			RCAL			RMT1			RMT5			LLFC			LMFC			LTH1			LTH2			LTH3			LLMAL			LMMAL			LTB1			LTB2			LTB3			LCAL			LMT1			LMT5			C7			T10			CLAV			STRN			RACR			LACR			
		X1	Y1	Z1	X2	Y2	Z2	X3	Y3	Z3	X4	Y4	Z4	X5	Y5	Z5	X6	Y6	Z6	X7	Y7	Z7	X8	Y8	Z8	X9	Y9	Z9	X10	Y10	Z10	X11	Y11	Z11	X12	Y12	Z12	X13	Y13	Z13	X14	Y14	Z14	X15	Y15	Z15	X16	Y16	Z16	X17	Y17	Z17	X18	Y18	Z18	X19	Y19	Z19	X20	Y20	Z20	X21	Y21	Z21	X22	Y22	Z22	X23	Y23	Z23	X24	Y24	Z24	X25	Y25	Z25	X26	Y26	Z26	X27	Y27	Z27	X28	Y28	Z28	X29	Y29	Z29	X30	Y30	Z30	X31	Y31	Z31	X32	Y32	Z32	X33	Y33	Z33	X34	Y34	Z34	X35	Y35	Z35	X36	Y36	Z36	X37	Y37	Z37	X38	Y38	Z38	
1	0.0040	0.369512	0.983248	0.410997	0.347306	0.979765	0.174461	0.184757	1.051484	0.354253	0.178869	1.055508	0.281694	0.299407	1.078921	0.457376	0.283012	1.076133	0.150027	0.249667	0.504499	0.459961	0.234098	0.496272	0.356314	0.270305	0.868915	0.497523	0.312256	0.774226	0.482978	0.250958	0.691942	0.489197	0.173405	0.095066	0.480195	0.198848	0.102263	0.396098	0.247429	0.368735	0.401473	0.250895	0.307402	0.459398	0.227326	0.233764	0.414680	0.110065	0.039376	0.420121	0.325353	0.046510	0.414714	0.313332	0.042216	0.507698	0.237262	0.517510	0.153925	0.239356	0.503139	0.264749	0.276483	0.864210	0.122316	0.317598	0.769720	0.135698	0.254111	0.686104	0.123566	0.173117	0.098490	0.140720	0.203604	0.102234	0.222304	0.249613	0.369329	0.212871	0.241940	0.301343	0.157137	0.225671	0.234428	0.208180	0.105340	0.040880	0.198846	0.327816	0.044605	0.196683	0.307807	0.046266	0.109931	0.206939	1.521436	0.300146	0.167575	1.225637	0.308324	0.317342	1.442999	0.299490	0.380734	1.236001	0.298213	0.221081	1.505588	0.445923	0.222502	1.512382	0.159227	
2	0.0080	0.369602	0.983288	0.411068	0.347450	0.979827	0.174532	0.184831	1.051415	0.354269	0.178947	1.055445	0.281725	0.299421	1.078895	0.457426	0.283089	1.076156	0.150076	0.249649	0.504451	0.459976	0.234030	0.496216	0.356339	0.270568	0.868908	0.497552	0.312487	0.774155	0.482956	0.251204	0.691920	0.489292	0.173439	0.095071	0.480212	0.198688	0.102537	0.395979	0.246716	0.368819	0.401700	0.250952	0.307325	0.459330	0.227347	0.233754	0.414684	0.110068	0.039398	0.420118	0.325351	0.046506	0.414672	0.313351	0.042195	0.507720	0.237472	0.517541	0.153851	0.239444	0.503080	0.264792	0.276744	0.864192	0.122385	0.317827	0.769733	0.135893	0.254301	0.686103	0.123664	0.173136	0.098468	0.140743	0.203607	0.102237	0.222252	0.249214	0.369327	0.212431	0.242007	0.301300	0.157266	0.225716	0.234421	0.208190	0.105334	0.040888	0.198850	0.327838	0.044583	0.196660	0.307788	0.046248	0.109944	0.207098	1.521452	0.300220	0.167612	1.225657	0.308344	0.317487	1.442965	0.299625	0.380815	1.235952	0.298311	0.221229	1.505564	0.446022	0.222738	1.512395	0.159269	
3	0.0120	0.369683	0.983314	0.411109	0.347570	0.979850	0.174570	0.184910	1.051334	0.354293	0.179030	1.055380	0.281746	0.299439	1.078884	0.457455	0.283161	1.076160	0.150113	0.250530	0.504464	0.460380	0.233995	0.496159	0.356358	0.270813	0.868867	0.497549	0.312726	0.774149	0.482952	0.251447	0.691881	0.489328	0.173453	0.095069	0.480202	0.198823	0.102296	0.396089	0.246668	0.368774	0.401594	0.250949	0.307337	0.459335	0.227330	0.233751	0.414689	0.110063	0.039393	0.420102	0.325398	0.046497	0.414671	0.313352	0.042209	0.507690	0.237525	0.517471	0.153963	0.239559	0.503060	0.264805	0.276982	0.864182	0.122449	0.318003	0.769681	0.136005	0.254534	0.686096	0.123699	0.173134	0.098508	0.140713	0.203625	0.102261	0.222337	0.249735	0.369283	0.212932	0.242071	0.301327	0.157187	0.225765	0.234409	0.208200	0.105340	0.040884	0.198844	0.327841	0.044601	0.196650	0.307806	0.046255	0.109945	0.207261	1.521469	0.300272	0.167653	1.225689	0.308340	0.317603	1.442962	0.299651	0.380898	1.235901	0.298402	0.221372	1.505534	0.446143	0.222957	1.512415	0.159311	
4	0.0160	0.369798	0.983369	0.411158	0.347206	0.979862	0.174665	0.184982	1.051281	0.354338	0.179099	1.055315	0.281774	0.299443	1.078870	0.457511	0.283232	1.076198	0.150125	0.250125	0.504387	0.460264	0.233976	0.496107	0.356391	0.271047	0.868823	0.497551	0.312967	0.774105	0.482941	0.251680	0.691856	0.489409	0.173477	0.095053	0.480215	0.198863	0.102268	0.396079	0.247442	0.368740	0.401532	0.250951	0.307395	0.459405	0.227330	0.233740	0.414679	0.110048	0.039418	0.420123	0.325381	0.046532	0.414608	0.313358	0.042182	0.507686	0.237661	0.517434	0.154010	0.239670	0.502976	0.264852	0.277234	0.864186	0.122537	0.318163	0.769698	0.136045	0.254733	0.686076	0.123780	0.173148	0.098516	0.140736	0.203644	0.102223	0.222329	0.249377	0.369287	0.212555	0.242130	0.301331	0.157163	0.225807	0.234409	0.208228	0.105337	0.040887	0.198857	0.327847	0.044606	0.196684	0.307786	0.046238	0.109930	0.207400	1.521476	0.300350	0.167717	1.225717	0.308359	0.317779	1.442936	0.299828	0.380988	1.235865	0.298492	0.221465	1.505353	0.446178	0.223178	1.512435	0.159368	
